<svg xmlns="http://www.w3.org/2000/svg" viewBox="0 0 1024 1024">
  <g transform="translate(0,1024) scale(0.1,-0.1)" fill="#000000">
    <path d="M4905 7793 c-401 -48 -781 -223 -1053 -487 -147 -141 -296 -362 -369
    -547 -93 -233 -128 -431 -120 -679 8 -241 49 -414 144 -606 51 -105 51 -104
    181 -123 209 -31 402 -23 679 29 878 165 1874 658 2347 1161 119 127 118 118
    52 255 -131 273 -316 494 -561 670 -107 77 -333 190 -465 234 -119 39 -286 75
    -412 89 -90 10 -354 13 -423 4z m1062 -713 c153 -312 178 -369 160 -365 -12 3
    -76 19 -142 35 -66 17 -125 30 -131 30 -11 0 -214 -794 -214 -835 0 -25 -146
    -104 -378 -206 -123 -54 -134 -57 -128 -36 3 12 66 261 140 552 74 292 138
    538 141 548 6 15 -1 17 -66 18 -41 1 -104 4 -141 8 l-66 6 111 102 c62 57 204
    195 317 308 113 113 207 205 210 205 4 0 88 -167 187 -370z m-826 -681 c-27
    -118 -75 -333 -106 -479 -31 -146 -60 -272 -64 -280 -13 -24 -462 -162 -478
    -146 -4 3 26 140 131 615 25 113 49 208 53 211 5 4 100 59 212 124 112 65 224
    130 249 146 26 16 48 28 49 26 2 -1 -19 -99 -46 -217z m-681 -321 c0 -2 -23
    -118 -50 -258 -27 -140 -53 -277 -56 -303 -4 -29 -13 -51 -23 -56 -29 -16
    -367 -65 -379 -56 -1 1 21 114 50 250 l53 248 100 42 c55 23 143 62 195 87 88
    43 110 52 110 46z"/>
    <path d="M6880 6184 c-53 -55 -241 -219 -365 -318 -408 -326 -1026 -654 -1545
    -821 -346 -111 -749 -195 -935 -195 -30 0 -56 -4 -59 -9 -15 -23 160 -153 314
    -234 437 -231 968 -277 1449 -126 131 41 356 154 470 236 258 185 472 454 586
    738 81 201 128 449 123 648 l-3 118 -35 -37z"/>
    <path d="M2340 4159 c-122 -17 -228 -80 -279 -163 -53 -85 -47 -220 13 -299
    44 -57 146 -109 272 -137 212 -47 274 -76 274 -130 0 -67 -60 -100 -183 -100
    -99 0 -209 26 -294 69 l-60 30 -37 -94 c-20 -51 -36 -96 -36 -99 0 -14 148
    -77 215 -91 232 -51 466 -18 584 81 76 64 109 194 75 300 -34 110 -128 172
    -329 219 -225 53 -282 83 -266 142 24 88 212 99 395 22 39 -16 70 -28 71 -26
    1 1 16 45 34 97 36 109 38 105 -56 140 -114 42 -268 58 -393 39z"/>
    <path d="M2900 4045 l0 -115 140 0 140 0 0 -395 0 -395 145 0 145 0 -2 395 -3
    395 148 0 147 0 0 115 0 115 -430 0 -430 0 0 -115z"/>
    <path d="M3830 3651 l0 -511 140 0 140 0 0 160 0 161 82 -3 83 -3 95 -157 95
    -158 153 0 c85 0 152 3 150 8 -4 9 -84 134 -166 259 -34 53 -61 97 -60 98 2 1
    24 13 49 28 93 53 146 140 156 256 14 169 -83 292 -270 344 -62 17 -113 20
    -359 24 l-288 5 0 -511z m563 265 c89 -43 94 -175 9 -228 -32 -19 -54 -23
    -164 -26 l-128 -4 0 142 0 142 123 -4 c91 -3 132 -9 160 -22z"/>
  </g>
</svg>
